<?xml version="1.0" encoding="UTF-8" standalone="no"?>
<!DOCTYPE svg PUBLIC "-//W3C//DTD SVG 1.1//EN"
 "http://www.w3.org/Graphics/SVG/1.1/DTD/svg11.dtd">
<!-- Generated by graphviz version 11.0.0 (20240428.1522)
 -->
<!-- Title: G Pages: 1 -->
<svg width="503pt" height="174pt"
 viewBox="0.00 0.00 517.55 179.22" xmlns="http://www.w3.org/2000/svg" xmlns:xlink="http://www.w3.org/1999/xlink">
<g id="graph0" class="graph" transform="scale(0.972222 0.972222) rotate(0) translate(4 175.22)">
<title>G</title>
<polygon fill="white" stroke="none" points="-4,4 -4,-175.22 513.55,-175.22 513.55,4 -4,4"/>
<!-- START -->
<g id="node1" class="node">
<title>START</title>
<ellipse fill="none" stroke="black" cx="27.75" cy="-70.62" rx="21.6" ry="21.6"/>
<text text-anchor="middle" x="27.75" y="-65.57" font-family="Times,serif" font-size="14.00">START</text>
</g>
<!-- START&#45;&gt;START -->
<g id="edge1" class="edge">
<title>START&#45;&gt;START</title>
<path fill="none" stroke="black" d="M15.52,-88.95C12.8,-99.91 16.88,-110.22 27.75,-110.22 34.72,-110.22 38.89,-105.99 40.28,-100.07"/>
<polygon fill="black" stroke="black" points="43.79,-100.37 40.02,-90.47 36.79,-100.56 43.79,-100.37"/>
<text text-anchor="middle" x="27.75" y="-113.42" font-family="Times,serif" font-size="14.00">[0.0, &#45;0.0]</text>
</g>
<!-- Ast -->
<g id="node2" class="node">
<title>Ast</title>
<ellipse fill="none" stroke="black" cx="177.6" cy="-149.62" rx="21.6" ry="21.6"/>
<text text-anchor="middle" x="177.6" y="-144.57" font-family="Times,serif" font-size="14.00">Ast</text>
</g>
<!-- START&#45;&gt;Ast -->
<g id="edge2" class="edge">
<title>START&#45;&gt;Ast</title>
<path fill="none" stroke="black" d="M42.6,-86.54C49.48,-93.72 58.26,-101.85 67.35,-107.62 91.71,-123.09 122.66,-134.32 145.4,-141.26"/>
<polygon fill="black" stroke="black" points="144.11,-144.53 154.69,-143.98 146.08,-137.81 144.11,-144.53"/>
<text text-anchor="middle" x="97.35" y="-136.82" font-family="Times,serif" font-size="14.00">[&#45;0.0, &#45;0.0]</text>
</g>
<!-- Aet -->
<g id="node3" class="node">
<title>Aet</title>
<ellipse fill="none" stroke="black" cx="342.6" cy="-107.62" rx="21.6" ry="21.6"/>
<text text-anchor="middle" x="342.6" y="-102.57" font-family="Times,serif" font-size="14.00">Aet</text>
</g>
<!-- START&#45;&gt;Aet -->
<g id="edge3" class="edge">
<title>START&#45;&gt;Aet</title>
<path fill="none" stroke="black" d="M49.09,-75.88C54.95,-77.25 61.38,-78.63 67.35,-79.62 154.32,-94.14 258.15,-102.27 309.53,-105.68"/>
<polygon fill="black" stroke="black" points="309.12,-109.16 319.33,-106.31 309.57,-102.18 309.12,-109.16"/>
<text text-anchor="middle" x="177.6" y="-99.82" font-family="Times,serif" font-size="14.00">[4.66, 7.33]</text>
</g>
<!-- Bst -->
<g id="node4" class="node">
<title>Bst</title>
<ellipse fill="none" stroke="black" cx="260.1" cy="-50.62" rx="21.6" ry="21.6"/>
<text text-anchor="middle" x="260.1" y="-45.57" font-family="Times,serif" font-size="14.00">Bst</text>
</g>
<!-- START&#45;&gt;Bst -->
<g id="edge4" class="edge">
<title>START&#45;&gt;Bst</title>
<path fill="none" stroke="black" d="M49.1,-66.17C54.97,-65.02 61.39,-63.89 67.35,-63.12 123.03,-55.93 188.37,-52.79 226.6,-51.49"/>
<polygon fill="black" stroke="black" points="226.62,-54.99 236.51,-51.17 226.4,-47.99 226.62,-54.99"/>
<text text-anchor="middle" x="97.35" y="-65.82" font-family="Times,serif" font-size="14.00">[4.0, 4.0]</text>
</g>
<!-- Bet -->
<g id="node5" class="node">
<title>Bet</title>
<ellipse fill="none" stroke="black" cx="487.95" cy="-51.62" rx="21.6" ry="21.6"/>
<text text-anchor="middle" x="487.95" y="-46.57" font-family="Times,serif" font-size="14.00">Bet</text>
</g>
<!-- START&#45;&gt;Bet -->
<g id="edge5" class="edge">
<title>START&#45;&gt;Bet</title>
<path fill="none" stroke="black" d="M47.37,-61.31C53.64,-58.35 60.73,-55.18 67.35,-52.62 137.01,-25.79 154.03,-14.25 227.85,-3.12 311.22,9.44 408.78,-21.2 456.93,-39.36"/>
<polygon fill="black" stroke="black" points="455.53,-42.57 466.12,-42.92 458.05,-36.04 455.53,-42.57"/>
<text text-anchor="middle" x="260.1" y="-6.82" font-family="Times,serif" font-size="14.00">[5.33, 6.66]</text>
</g>
<!-- Ast&#45;&gt;Aet -->
<g id="edge6" class="edge">
<title>Ast&#45;&gt;Aet</title>
<path fill="none" stroke="black" d="M198.91,-144.39C226.93,-137.17 277.68,-124.09 310.49,-115.64"/>
<polygon fill="black" stroke="black" points="311.01,-119.12 319.82,-113.24 309.26,-112.34 311.01,-119.12"/>
<text text-anchor="middle" x="260.1" y="-138.82" font-family="Times,serif" font-size="14.00">[4.66, 7.33]</text>
</g>
<!-- Aet&#45;&gt;Bet -->
<g id="edge7" class="edge">
<title>Aet&#45;&gt;Bet</title>
<path fill="none" stroke="black" d="M363.23,-99.96C387.47,-90.49 428.92,-74.29 457.11,-63.28"/>
<polygon fill="black" stroke="black" points="458.1,-66.65 466.15,-59.75 455.56,-60.13 458.1,-66.65"/>
<text text-anchor="middle" x="420.6" y="-90.82" font-family="Times,serif" font-size="14.00">[&#45;2.0, 2.0]</text>
</g>
<!-- Bst&#45;&gt;Bet -->
<g id="edge8" class="edge">
<title>Bst&#45;&gt;Bet</title>
<path fill="none" stroke="black" d="M281.94,-50.72C321.52,-50.89 407.8,-51.27 454.83,-51.48"/>
<polygon fill="black" stroke="black" points="454.63,-54.98 464.64,-51.53 454.66,-47.98 454.63,-54.98"/>
<text text-anchor="middle" x="342.6" y="-53.82" font-family="Times,serif" font-size="14.00">[1.33, 2.67]</text>
</g>
</g>
</svg>
