<?xml version="1.0" encoding="UTF-8" standalone="no"?>
<!DOCTYPE svg PUBLIC "-//W3C//DTD SVG 1.1//EN"
 "http://www.w3.org/Graphics/SVG/1.1/DTD/svg11.dtd">
<!-- Generated by graphviz version 10.0.1 (20240210.2158)
 -->
<!-- Title: G Pages: 1 -->
<svg width="262pt" height="50pt"
 viewBox="0.00 0.00 269.60 51.20" xmlns="http://www.w3.org/2000/svg" xmlns:xlink="http://www.w3.org/1999/xlink">
<g id="graph0" class="graph" transform="scale(0.972222 0.972222) rotate(0) translate(4 47.2)">
<title>G</title>
<polygon fill="white" stroke="none" points="-4,4 -4,-47.2 265.6,-47.2 265.6,4 -4,4"/>
<!-- X -->
<g id="node1" class="node">
<title>X</title>
<ellipse fill="none" stroke="black" cx="21.6" cy="-21.6" rx="21.6" ry="21.6"/>
<text text-anchor="middle" x="21.6" y="-16.17" font-family="Times New Roman,serif" font-size="14.00">X</text>
</g>
<!-- E -->
<g id="node2" class="node">
<title>E</title>
<ellipse fill="none" stroke="black" cx="130.8" cy="-21.6" rx="21.6" ry="21.6"/>
<text text-anchor="middle" x="130.8" y="-16.17" font-family="Times New Roman,serif" font-size="14.00">E</text>
</g>
<!-- X&#45;&gt;E -->
<g id="edge1" class="edge">
<title>X&#45;&gt;E</title>
<path fill="none" stroke="black" d="M43.52,-21.6C58.87,-21.6 80,-21.6 97.5,-21.6"/>
<polygon fill="black" stroke="black" points="97.42,-25.1 107.42,-21.6 97.42,-18.1 97.42,-25.1"/>
<text text-anchor="middle" x="76.2" y="-24.05" font-family="Times New Roman,serif" font-size="14.00">[1, 2]</text>
</g>
<!-- Z -->
<g id="node3" class="node">
<title>Z</title>
<ellipse fill="none" stroke="black" cx="240" cy="-21.6" rx="21.6" ry="21.6"/>
<text text-anchor="middle" x="240" y="-16.17" font-family="Times New Roman,serif" font-size="14.00">Z</text>
</g>
<!-- E&#45;&gt;Z -->
<g id="edge2" class="edge">
<title>E&#45;&gt;Z</title>
<path fill="none" stroke="black" d="M152.72,-21.6C168.07,-21.6 189.2,-21.6 206.7,-21.6"/>
<polygon fill="black" stroke="black" points="206.62,-25.1 216.62,-21.6 206.62,-18.1 206.62,-25.1"/>
<text text-anchor="middle" x="185.4" y="-24.05" font-family="Times New Roman,serif" font-size="14.00">[3, 4]</text>
</g>
</g>
</svg>
